<?xml version="1.0" encoding="utf-8"?>
<!-- Generator: Adobe Illustrator 14.0.0, SVG Export Plug-In  -->
<!DOCTYPE svg PUBLIC "-//W3C//DTD SVG 1.1//EN" "http://www.w3.org/Graphics/SVG/1.1/DTD/svg11.dtd" [
	<!ENTITY ns_flows "http://ns.adobe.com/Flows/1.0/">
]>
<svg version="1.1"
	 xmlns="http://www.w3.org/2000/svg" xmlns:xlink="http://www.w3.org/1999/xlink" xmlns:a="http://ns.adobe.com/AdobeSVGViewerExtensions/3.0/"
	 x="0px" y="0px" width="97px" height="80px" viewBox="0 0 97 80" enable-background="new 0 0 97 80" xml:space="preserve">
<defs>
</defs>
<path fill="#00539B" d="M25.466,52.771h-5.625v4.468h6.293v1.342h-8.189v-12.39h7.866v1.343h-5.97v3.915h5.625V52.771z"/>
<path fill="#00539B" d="M35.617,56.449c0,0.772,0.043,1.525,0.151,2.132h-1.703l-0.172-1.121h-0.065
	c-0.56,0.699-1.702,1.324-3.189,1.324c-2.112,0-3.189-1.27-3.189-2.556c0-2.151,2.241-3.328,6.271-3.309v-0.185
	c0-0.735-0.237-2.076-2.371-2.059c-0.991,0-2.004,0.238-2.737,0.662l-0.431-1.086c0.862-0.459,2.134-0.771,3.449-0.771
	c3.211,0,3.987,1.856,3.987,3.639V56.449z M33.764,54.041c-2.069-0.037-4.418,0.275-4.418,2.003c0,1.066,0.819,1.544,1.767,1.544
	c1.38,0,2.263-0.734,2.564-1.488c0.065-0.166,0.086-0.349,0.086-0.515V54.041z"/>
<path fill="#00539B" d="M38.182,56.944c0.582,0.295,1.573,0.625,2.521,0.625c1.358,0,2.004-0.569,2.004-1.322
	c0-0.771-0.539-1.194-1.918-1.636c-1.897-0.589-2.781-1.453-2.781-2.519c0-1.434,1.38-2.61,3.6-2.61
	c1.056,0,1.983,0.238,2.543,0.552l-0.453,1.157c-0.409-0.203-1.164-0.515-2.133-0.515c-1.121,0-1.725,0.552-1.725,1.213
	c0,0.754,0.604,1.085,1.961,1.525c1.789,0.571,2.737,1.343,2.737,2.685c0,1.58-1.444,2.685-3.879,2.685
	c-1.142,0-2.198-0.259-2.931-0.625L38.182,56.944z"/>
<path fill="#00539B" d="M49.044,47.552v2.132h2.714v1.231h-2.714v4.799c0,1.103,0.366,1.729,1.422,1.729
	c0.518,0,0.819-0.037,1.099-0.111l0.086,1.231c-0.365,0.11-0.947,0.222-1.68,0.222c-0.884,0-1.595-0.259-2.048-0.68
	c-0.517-0.498-0.732-1.288-0.732-2.336v-4.854h-1.617v-1.231h1.617v-1.636L49.044,47.552z"/>
<path fill="#00539B" d="M54.629,54.408c0.042,2.188,1.658,3.089,3.557,3.089c1.356,0,2.197-0.202,2.887-0.441l0.346,1.14
	c-0.669,0.257-1.834,0.57-3.492,0.57c-3.189,0-5.131-1.821-5.131-4.486c0-2.701,1.876-4.816,4.915-4.816
	c3.405,0,4.289,2.556,4.289,4.192c0,0.331-0.022,0.587-0.064,0.771L54.629,54.408z M60.167,53.251
	c0.021-1.012-0.496-2.629-2.607-2.629c-1.94,0-2.759,1.508-2.911,2.629H60.167z"/>
<path fill="#00539B" d="M64.155,52.46c0-1.048-0.022-1.949-0.087-2.776h1.659l0.086,1.746h0.064c0.476-1.194,1.639-1.947,2.91-1.947
	c0.193,0,0.345,0.018,0.516,0.055v1.507c-0.213-0.019-0.409-0.036-0.668-0.036c-1.335,0-2.282,0.863-2.543,2.059
	c-0.042,0.24-0.064,0.495-0.064,0.772v4.742h-1.896L64.155,52.46z"/>
<path fill="#00539B" d="M71.049,52.093c0-0.938-0.022-1.674-0.087-2.409h1.681l0.108,1.453h0.042
	c0.52-0.828,1.725-1.654,3.449-1.654c1.444,0,3.686,0.735,3.686,3.787v5.312h-1.896v-5.129c0-1.434-0.625-2.646-2.414-2.646
	c-1.229,0-2.198,0.754-2.543,1.654c-0.087,0.201-0.129,0.496-0.129,0.754v5.367h-1.896V52.093z"/>
<path fill="#00539B" d="M5.833,75.85c0,1.467,0.034,2.983,2.167,3.138v0.23H0v-0.23c2.133-0.232,2.166-1.569,2.166-2.957V65.671
	c0-1.415-0.033-2.906-2.166-3.138v-0.229h7.999v0.229c-2.133,0.181-2.167,1.519-2.167,2.957v1.518h9.932v-1.337
	c-0.034-1.492,0-3.009-2.167-3.138v-0.229h7.999v0.229c-2.133,0.207-2.133,1.544-2.167,2.957V75.85
	c0.034,1.44,0.034,2.931,2.167,3.138v0.23h-7.999v-0.23c2.133-0.129,2.133-1.492,2.167-2.957v-7.789H5.833V75.85z"/>
<path fill="#00539B" d="M27.096,73.434c0.533,2.647,3.433,4.809,6.932,4.809c1.334,0,3.033-0.593,4.033-1.261
	c0.8-0.539,1.3-1.233,1.767-1.954l0.3,0.103l-1.733,4.243c-0.667-0.489-2.633,0.127-5.732,0.127c-2.8,0-9.365-1.67-9.365-6.605
	c0-3.829,3.866-6.606,8.765-6.606c3.6,0,6.833,1.671,7.766,4.421L27.096,73.434z M35.928,70.374
	c-0.633-1.438-2.033-2.854-4.166-2.854c-3.399,0-4.966,2.494-4.866,4.834L35.928,70.374z"/>
<path fill="#00539B" d="M54.658,79.218c-0.665-0.669-1.099-1.466-1.134-2.313c-1.299,1.825-4.065,2.57-6.631,2.57
	c-3.033,0-5.266-1.105-5.266-3.008c0-4.035,7.765-4.961,11.631-5.68v-0.49c0.033-1.902-0.898-2.569-3.366-2.569
	c-3.166,0-5.766,1.208-7.099,3.495l0.534-4.215c0.633,0.386,1,0.437,2.133,0.128c2.1-0.565,3.5-0.848,5.766-0.848
	c4.232,0,5.633,1.105,5.633,4.318v4.832c0,1.543,0.033,3.188,2.367,3.549v0.23H54.658z M53.259,71.84
	c-2.633,0.437-7.832,1.646-7.832,4.293c0,1.208,1.266,1.903,2.7,1.903c4.267,0,5.266-3.035,5.132-5.554V71.84z"/>
<path fill="#00539B" d="M64.656,61.635v14.422c0,1.387,0.033,2.854,2,2.931v0.23h-7.397v-0.23c1.965-0.181,1.999-1.619,1.999-2.931
	V65.464c0-1.412-0.034-2.854-1.999-2.931v-0.229L64.656,61.635z"/>
<path fill="#00539B" d="M69.024,67.882h-2.201v-0.232c1.833-0.359,2.8-1.722,2.8-3.214c0-0.436-0.101-0.874-0.199-1.31l3-1.028
	v4.678h2.665c0.833,0,1.467,0.025,2.133-0.438l-0.933,1.826c-0.334-0.282-0.999-0.282-1.432-0.282h-2.434v7.506
	c0,1.671,0.365,2.597,2.365,2.597c1.301,0,2.333-0.412,3.166-1.184l0.201,0.077l-1.134,2.109c-1.332,0.333-2.8,0.487-4.166,0.487
	c-3.2,0-3.832-1.645-3.832-3.752V67.882z"/>
<path fill="#00539B" d="M83.788,61.635v7.557c1.934-1.464,4.333-2.903,7.165-2.903c2.866,0,3.867,1.413,3.867,4.035v5.733
	c0,1.387,0.033,2.827,2.065,2.956v0.205h-7.398v-0.205c1.899-0.18,1.933-1.645,1.933-2.982v-4.575c0-1.39,0.035-3.316-2.466-3.316
	c-1.468,0-3.133,0.823-3.999,1.696c-1.134,1.104-1.167,2.186-1.167,3.521v2.674c0,1.363,0.033,2.803,1.967,2.982v0.205h-7.367v-0.23
	c1.968-0.207,2.001-1.646,2.001-2.957V65.464c0-1.412-0.033-2.879-2.001-2.931v-0.229L83.788,61.635z"/>
<path fill="none" d="M76.828,16.957l0.06-0.131l0.045-0.114l0.01-0.017l0.051-0.135l0.043-0.136l0.041-0.133l0.031-0.133
	l0.027-0.136l0.019-0.129l-0.056-0.154l-0.059-0.159l-0.064-0.164l-0.061-0.162l-0.051-0.126c-0.023,0.624-0.047,1.25-0.064,1.881
	L76.828,16.957z"/>
<path fill="none" d="M76.817,18.58l0.105-0.154l0.098-0.132l0.085-0.131l0.073-0.112l-0.014-0.02l-0.06,0.084l-0.108,0.141
	l-0.109,0.141l-0.053,0.067l-0.037,0.044c0,0.031,0,0.063,0.002,0.094L76.817,18.58z"/>
<path fill="none" d="M76.82,17.8l0.083-0.154l0.072-0.133l-0.023,0.032l-0.123,0.173l-0.045,0.061c0,0.028-0.002,0.056-0.002,0.083
	L76.82,17.8z"/>
<path fill="none" d="M76.938,14.459l0.055,0.11l0.057,0.115l0.051-0.052l-0.02-0.044l-0.068-0.171l-0.074-0.18l-0.043-0.091
	c-0.002,0.072-0.003,0.146-0.004,0.219L76.938,14.459z"/>
<path fill="#D0A741" d="M76.78,14.918l-0.07-0.174l-0.076-0.178l-0.076-0.176l-0.082-0.175l-0.083-0.18l-0.086-0.178l-0.088-0.174
	l-0.095-0.176l-0.091-0.174l-0.098-0.17l-0.099-0.167l-0.104-0.166l-0.105-0.156l-0.113-0.157l-0.111-0.148L75.34,12.29
	l-0.056-0.065l-0.124-0.14l-0.121-0.131l-0.133-0.126l-0.125-0.115l-0.141-0.109l-0.137-0.099l-0.145-0.092l-0.145-0.076
	l-0.147-0.072l-0.156-0.061l-0.13-0.071l-0.122-0.071l-0.129-0.058l-0.126-0.044l-0.127-0.046l-0.127-0.03l-0.13-0.03l-0.124-0.015
	l-0.131-0.016h-0.133h-0.127l-0.126,0.004l-0.128,0.014l-0.131,0.021l-0.131,0.016l-0.126,0.029l-0.129,0.03l-0.122,0.035
	l-0.131,0.036l-0.127,0.041l-0.131,0.046l-0.129,0.047l-0.123,0.049l-0.126,0.047l-0.127,0.052l-0.118,0.05l-0.128,0.053
	l-0.126,0.055l-0.122,0.056l-0.122,0.053l-0.117,0.049l-0.119,0.054l-0.105,0.096l-0.096,0.087l-0.09,0.085l-0.005,0.005
	l-0.024,0.033l-0.039,0.039l-0.063,0.087l-0.064,0.09l-0.069,0.089l-0.066,0.1l-0.068,0.104L69.1,12.583l-0.079,0.125l-0.083,0.13
	l-0.151,0.288l-0.133,0.277l-0.115,0.26l-0.098,0.244l-0.079,0.234l-0.061,0.228l-0.045,0.22l-0.03,0.225l-0.009,0.218v0.223
	l0.018,0.228l0.032,0.239l0.041,0.251l0.062,0.264l0.066,0.279l0.058,0.196l0.025,0.108l0.113,0.146l0.108,0.141l0.105,0.14
	l0.106,0.128l0.109,0.124l0.107,0.118l0.103,0.116l0.111,0.106l0.104,0.102l0.113,0.094l0.11,0.09l0.114,0.087l0.113,0.091
	l0.118,0.074l0.117,0.075l0.023,0.014l0.095,0.056l0.126,0.066l0.127,0.065l0.132,0.058l0.136,0.06l0.133,0.049l0.144,0.049
	l0.151,0.05l0.146,0.046l0.164,0.041l0.157,0.034l0.167,0.04l0.176,0.035l0.18,0.034l0.184,0.031l0.192,0.026l0.199,0.025
	l0.076,0.029l0.09,0.016l0.1,0.012h0.112l0.13-0.014l0.134-0.014l0.139-0.024l0.14-0.023l0.139-0.029l0.142-0.035l0.133-0.034
	l0.122-0.038l0.116-0.036l0.104-0.035l0.082-0.036l0.068-0.034l0.125-0.046l0.12-0.046L75,18.779l0.124-0.058l0.119-0.065
	l0.123-0.073l0.119-0.076l0.06-0.042l0.063-0.042l0.116-0.086l0.113-0.089l0.11-0.093l0.109-0.103l0.109-0.105l0.098-0.116
	l0.089-0.116l0.093-0.124l0.087-0.121l0.077-0.128l0.079-0.127l0.068-0.129l0.043-0.076c0.018-0.631,0.041-1.257,0.064-1.881
	l-0.018-0.043L76.78,14.918z"/>
<path fill="#D0A741" d="M76.563,18.058l-0.137,0.152l-0.145,0.147l-0.023,0.021l-0.002,0.002l-0.133,0.158l-0.146,0.146
	l-0.115,0.106l-0.025,0.024l-0.148,0.121l-0.15,0.102L75.39,19.12l-0.146,0.06l-0.129,0.086l-0.14,0.084l-0.145,0.077L74.679,19.5
	l-0.161,0.073l-0.158,0.064l-0.162,0.059l-0.173,0.059l-0.176,0.05l-0.172,0.043l-0.183,0.04l-0.182,0.039l-0.185,0.024
	l-0.185,0.024l-0.016,0.001l0.044,0.002h0.099h0.1h0.102h0.107l0.175-0.007l0.176-0.017l0.168-0.026l0.176-0.034l0.169-0.042
	l0.17-0.055l0.162-0.059l0.168-0.066l0.162-0.076l0.161-0.08l0.154-0.089l0.153-0.094l0.151-0.106l0.149-0.107l0.149-0.114
	l0.134-0.119l0.141-0.118l0.124-0.124l0.077-0.087l0.113-0.149l0.111-0.144l0.102-0.15l0.099-0.155l0.059-0.096
	c0-0.028,0.002-0.055,0.002-0.083L76.7,17.891L76.563,18.058z"/>
<path fill="#E1BE3C" d="M72.097,36.63c0.009,0.007,0.024,0.013,0.034,0.021C72.128,36.639,72.118,36.631,72.097,36.63z"/>
<path fill="#D0A741" d="M76.782,13.885l-0.085-0.177l-0.083-0.182l-0.087-0.169l-0.093-0.182l-0.097-0.171l-0.096-0.167
	l-0.013-0.022l-0.022-0.026l-0.102-0.117l-0.103-0.119l-0.101-0.111l-0.106-0.113l-0.037-0.039l-0.07-0.075l-0.104-0.108
	l-0.108-0.104l-0.105-0.104l-0.103-0.097l-0.106-0.101l-0.1-0.09l-0.097-0.094l-0.1-0.087l-0.094-0.082l-0.093-0.075L74.6,11.197
	l-0.085-0.073l0.048,0.069l0.058,0.072l0.068,0.079l0.075,0.091l0.084,0.094l0.086,0.094l0.1,0.109l0.104,0.111l0.106,0.115
	l0.115,0.126l0.119,0.122l0.083,0.085l0.047,0.046l0.126,0.141l0.129,0.144l0.134,0.148l0.135,0.152l0.051,0.11l0.055,0.112
	l0.059,0.11l0.053,0.108L76.4,13.47l0.064,0.111l0.063,0.113l0.057,0.107l0.062,0.106l0.057,0.108l0.059,0.11l0.06,0.111l0.062,0.11
	l0.01,0.018c0.001-0.073,0.002-0.147,0.004-0.219l-0.037-0.083L76.782,13.885z"/>
<path fill="#E1BE3C" d="M61.884,36.414c0-0.635-0.004-1.269-0.008-1.904C61.868,35.145,61.884,35.784,61.884,36.414z"/>
<path fill="#D0A741" d="M76.668,18.67l-0.119,0.127l-0.114,0.124l-0.118,0.129l-0.118,0.12l-0.074,0.078l-0.116,0.128L75.887,19.5
	l-0.126,0.122l-0.129,0.122l-0.008,0.007l0.029-0.01l0.129-0.069l0.144-0.095l0.137-0.106l0.145-0.134l0.109-0.107l0.006-0.008
	l0.131-0.167l0.129-0.16l0.081-0.103l0.039-0.057l0.098-0.13c-0.002-0.032-0.002-0.063-0.002-0.094l-0.023,0.027L76.668,18.67z"/>
<polygon fill="#E1BE3C" points="69.625,18.606 69.5,18.511 69.438,18.465 69.381,18.422 69.293,18.358 69.294,18.36 69.406,18.451 
	69.514,18.538 69.631,18.627 69.75,18.702 69.868,18.778 69.892,18.791 69.758,18.695 "/>
<polygon fill="#D0A741" points="75.665,11.755 75.782,11.878 75.865,11.966 75.91,12.013 76.035,12.152 76.166,12.294 
	76.299,12.442 76.436,12.594 76.49,12.708 76.54,12.819 76.6,12.925 76.652,13.035 76.671,13.065 76.67,13.055 76.643,12.905 
	76.6,12.761 76.54,12.62 76.469,12.489 76.387,12.358 76.332,12.29 76.295,12.24 76.188,12.123 76.076,12.017 75.957,11.907 
	75.837,11.808 75.71,11.712 75.577,11.618 75.469,11.541 75.553,11.631 "/>
<polygon fill="#E1BE3C" points="75.494,11.813 75.585,11.937 75.682,12.053 75.782,12.175 75.879,12.29 75.887,12.297 75.939,12.36 
	75.932,12.349 75.823,12.188 75.702,12.042 75.646,11.966 75.592,11.899 75.468,11.757 75.404,11.694 75.406,11.696 "/>
<polygon fill="#FFFFFF" points="71.624,8.053 71.668,8.16 71.763,8.228 72.069,8.21 72.17,8.083 72.188,8.004 72.309,7.997 
	72.337,7.964 72.351,7.961 72.396,7.954 72.439,7.942 72.483,7.919 72.526,7.879 72.57,7.821 72.692,7.842 72.654,7.736 
	72.639,7.736 72.675,7.728 72.716,7.708 72.764,7.666 72.81,7.607 72.931,7.63 72.895,7.521 72.83,7.521 72.729,7.171 72.651,6.817 
	72.604,6.467 72.57,6.115 72.544,5.761 72.521,5.409 72.485,5.056 72.431,4.708 72.181,4.495 72.077,4.493 71.983,4.508 
	71.899,4.546 71.828,4.598 71.763,4.664 71.717,4.738 71.664,4.761 71.594,4.812 71.524,4.881 71.476,4.958 71.432,5.048 
	71.393,5.141 71.36,5.239 71.337,5.341 71.318,5.442 71.311,5.542 71.299,5.633 71.297,5.715 71.297,5.792 71.299,5.854 "/>
<path fill="#FFFFFF" d="M76.529,5.69l-0.08,0.096l-0.09,0.129L76.25,6.075l-0.111,0.183L76.018,6.45l-0.122,0.214l-0.123,0.218
	l-0.119,0.221l-0.121,0.219l-0.105,0.219l-0.098,0.204l-0.087,0.19l-0.067,0.169l-0.057,0.149l-0.029,0.122l-0.008,0.08l0.12,0.098
	l0.216-0.011l0.271,0.102l0.218,0.034l0.064-0.104l0.076-0.115l0.146,0.023l0.063-0.107l0.097-0.148l0.123-0.183l0.142-0.22
	l0.057-0.087c0.042-0.646,0.081-1.29,0.04-1.92c-0.002-0.057-0.016-0.112-0.021-0.168l-0.035,0.051L76.529,5.69z"/>
<polygon fill="#FFFFFF" points="67.079,6.917 67.095,6.978 67.124,7.051 67.151,7.123 67.188,7.2 67.229,7.282 67.274,7.37 
	67.327,7.461 67.386,7.553 67.446,7.647 67.511,7.743 67.574,7.839 67.646,7.937 67.715,8.03 67.783,8.128 67.861,8.224 
	67.934,8.316 68.012,8.405 68.086,8.496 68.159,8.575 68.234,8.659 68.308,8.735 68.379,8.809 68.446,8.871 68.513,8.934 
	68.579,8.983 68.642,9.032 68.698,9.07 68.751,9.1 68.799,9.122 68.846,9.136 69.093,9.104 69.202,8.993 69.197,8.946 69.307,8.934 
	69.416,8.82 69.404,8.674 69.399,8.524 69.394,8.374 69.36,8.235 69.332,8.205 69.296,8.169 69.263,8.139 69.23,8.107 69.202,8.076 
	69.174,8.043 69.141,8.011 69.114,7.976 69.084,7.94 69.056,7.909 69.028,7.874 69.005,7.839 68.979,7.802 68.956,7.768 
	68.933,7.731 68.912,7.696 68.886,7.633 68.849,7.548 68.805,7.448 68.753,7.335 68.698,7.206 68.633,7.077 68.566,6.941 
	68.497,6.807 68.425,6.681 68.352,6.561 68.273,6.454 68.193,6.363 68.115,6.292 68.041,6.244 67.967,6.224 67.893,6.233 
	67.814,6.257 67.745,6.276 67.685,6.292 67.631,6.305 67.586,6.319 67.542,6.334 67.506,6.344 67.473,6.363 67.446,6.379 
	67.417,6.4 67.394,6.425 67.372,6.454 67.345,6.489 67.339,6.503 67.325,6.509 67.29,6.521 67.257,6.536 67.228,6.552 67.2,6.572 
	67.179,6.596 67.156,6.628 67.13,6.664 67.108,6.704 67.083,6.751 67.063,6.807 67.067,6.856 "/>
<polygon fill="#FFFFFF" points="63.481,10.219 63.52,10.29 63.565,10.359 63.622,10.423 63.683,10.487 63.759,10.543 63.835,10.598 
	63.919,10.655 64.003,10.708 64.095,10.758 64.175,10.807 64.263,10.859 64.346,10.907 64.427,10.96 64.496,11.006 64.568,11.06 
	66.133,11.933 66.314,11.881 66.359,11.719 66.373,11.574 66.371,11.559 66.41,11.436 66.428,11.274 66.418,11.129 66.377,11 
	66.314,10.891 66.234,10.789 66.139,10.699 66.037,10.617 65.926,10.543 65.823,10.474 65.717,10.398 65.62,10.333 65.536,10.266 
	65.474,10.191 65.433,10.112 65.414,10.026 65.373,10.004 65.327,9.983 65.285,9.963 65.237,9.944 65.19,9.926 65.142,9.907 
	65.093,9.884 65.043,9.87 64.996,9.853 64.943,9.833 64.895,9.813 64.846,9.795 64.799,9.773 64.752,9.749 64.707,9.719 
	64.666,9.693 64.588,9.645 64.515,9.599 64.455,9.552 64.4,9.516 64.35,9.483 64.304,9.455 64.256,9.432 64.214,9.412 64.166,9.401 
	64.118,9.394 64.062,9.392 64.003,9.401 63.935,9.412 63.86,9.436 63.771,9.467 63.673,9.504 63.51,9.847 63.53,9.938 63.543,9.965 
	63.46,10.142 "/>
<polygon fill="#FFFFFF" points="62.914,15.584 62.98,15.591 63.053,15.598 63.117,15.607 63.185,15.612 63.256,15.624 
	63.325,15.631 63.39,15.642 63.453,15.656 63.522,15.668 63.591,15.684 63.659,15.697 63.726,15.717 63.792,15.736 63.855,15.76 
	63.84,15.854 63.935,15.934 64.04,15.814 64.588,15.973 64.682,15.965 64.768,15.954 64.84,15.948 64.902,15.941 64.961,15.934 
	65.014,15.922 65.056,15.911 65.095,15.894 65.13,15.877 65.167,15.849 65.198,15.818 65.229,15.778 65.267,15.729 65.304,15.668 
	65.309,15.661 65.324,15.654 65.364,15.631 65.398,15.607 65.43,15.574 65.46,15.534 65.495,15.486 65.536,15.424 65.576,15.354 
	65.622,15.274 65.442,14.875 65.353,14.824 65.26,14.784 65.167,14.744 65.076,14.702 64.984,14.663 64.891,14.629 64.801,14.596 
	64.711,14.568 64.617,14.536 64.529,14.51 64.435,14.484 64.344,14.459 64.255,14.435 64.159,14.417 64.071,14.397 63.979,14.377 
	63.89,14.362 63.799,14.341 63.707,14.327 63.614,14.313 63.52,14.294 63.432,14.282 63.342,14.271 63.25,14.253 63.158,14.241 
	63.066,14.224 62.974,14.214 62.884,14.198 62.791,14.182 62.702,14.17 62.607,14.151 62.517,14.137 62.435,14.174 62.385,14.238 
	62.351,14.313 62.337,14.389 62.287,14.381 62.206,14.417 62.155,14.481 62.122,14.556 62.104,14.648 62.091,14.744 62.091,14.774 
	62.081,14.78 62.049,14.815 62.015,14.864 61.979,14.92 61.933,14.992 61.887,15.008 61.851,15.026 61.822,15.059 61.784,15.104 
	61.748,15.166 61.696,15.237 61.713,15.318 61.713,15.378 61.777,15.401 61.843,15.421 61.907,15.438 61.972,15.457 62.036,15.469 
	62.103,15.486 62.171,15.499 62.235,15.506 62.303,15.519 62.368,15.53 62.435,15.538 62.503,15.542 62.572,15.552 62.641,15.558 
	62.709,15.565 62.776,15.57 62.848,15.577 "/>
<polygon fill="#FFFFFF" points="66.475,19.577 66.455,19.517 66.428,19.459 66.393,19.394 66.348,19.331 66.293,19.272 
	66.229,19.208 66.149,19.146 66.045,19.195 65.946,19.245 65.843,19.296 65.744,19.343 65.642,19.394 65.542,19.446 65.44,19.498 
	65.342,19.548 65.247,19.598 65.145,19.652 65.047,19.703 64.951,19.757 64.85,19.811 64.753,19.859 64.656,19.916 64.557,19.97 
	64.459,20.022 64.361,20.079 64.268,20.133 64.171,20.186 64.071,20.24 63.978,20.295 63.878,20.349 63.783,20.408 63.683,20.462 
	63.589,20.517 63.489,20.574 63.395,20.634 63.299,20.689 63.2,20.747 63.103,20.801 63.005,20.858 62.98,21.043 62.979,21.063 
	62.92,21.095 62.822,21.153 62.797,21.335 62.786,21.485 62.794,21.604 62.811,21.687 62.851,21.748 62.896,21.786 62.958,21.8 
	63.022,21.797 63.103,21.78 63.184,21.75 63.27,21.715 63.311,21.694 63.27,21.729 63.211,21.78 63.161,21.833 63.105,21.895 
	63.061,21.958 63.008,22.034 63.021,22.084 62.98,22.127 62.926,22.188 62.874,22.255 62.827,22.327 62.883,22.535 62.989,22.578 
	63.059,22.555 63.128,22.521 63.199,22.491 63.268,22.455 63.334,22.419 63.413,22.378 63.483,22.337 63.554,22.294 63.63,22.25 
	63.7,22.201 63.774,22.152 63.848,22.103 63.919,22.055 63.993,21.997 64.067,21.948 64.138,21.895 64.208,21.842 64.279,21.783 
	64.35,21.725 64.42,21.67 64.488,21.611 64.557,21.556 64.625,21.497 64.688,21.44 64.75,21.382 64.816,21.323 64.875,21.266 
	64.936,21.211 64.998,21.155 65.053,21.099 65.104,21.046 65.16,20.991 65.211,20.968 65.267,20.946 65.324,20.918 65.386,20.885 
	65.45,20.855 65.509,20.822 65.576,20.782 65.642,20.749 65.704,20.708 65.768,20.663 65.832,20.623 65.892,20.574 65.946,20.529 
	66.003,20.477 66.053,20.432 66.102,20.381 66.148,20.327 66.188,20.273 66.221,20.217 66.247,20.165 66.271,20.107 66.273,20.099 
	66.283,20.087 66.33,20.034 66.365,19.98 66.402,19.929 66.43,19.874 66.451,19.814 66.471,19.755 66.48,19.697 66.478,19.638 "/>
<path fill="#FFFFFF" d="M76.702,18.734l-0.039,0.057l-0.081,0.103l-0.129,0.16l-0.131,0.167l-0.006,0.008l-0.109,0.107l-0.145,0.134
	l-0.137,0.106l-0.144,0.095l-0.129,0.069l-0.029,0.01l0.008-0.007l0.129-0.122l0.126-0.122l0.121-0.124l0.116-0.128l0.074-0.078
	l0.118-0.12l0.118-0.129l0.114-0.124l0.119-0.127l0.106-0.134l0.023-0.027c-0.006-0.215-0.016-0.433-0.016-0.646l-0.059,0.096
	l-0.099,0.155l-0.102,0.15l-0.111,0.144l-0.113,0.149l-0.077,0.087l-0.124,0.124l-0.141,0.118l-0.134,0.119l-0.149,0.114
	l-0.149,0.107l-0.151,0.106l-0.153,0.094l-0.154,0.089l-0.161,0.08l-0.162,0.076l-0.168,0.066l-0.162,0.059l-0.17,0.055
	l-0.169,0.042l-0.176,0.034l-0.168,0.026l-0.176,0.017l-0.175,0.007h-0.107H73.17h-0.1h-0.099l-0.044-0.002l0.016-0.001l0.185-0.024
	l0.185-0.024l0.182-0.039l0.183-0.04l0.172-0.043l0.176-0.05l0.173-0.059l0.162-0.059l0.158-0.064l0.161-0.073l0.151-0.073
	l0.145-0.077l0.14-0.084l0.129-0.086l0.146-0.06l0.148-0.083l0.15-0.102l0.148-0.121l0.025-0.024l0.115-0.106l0.146-0.146
	l0.133-0.158l0.002-0.002l0.023-0.021l0.145-0.147l0.137-0.152l0.138-0.167l0.084-0.112c0.002-0.258,0.01-0.515,0.016-0.77
	l-0.043,0.076l-0.068,0.129l-0.079,0.127l-0.077,0.128l-0.087,0.121l-0.093,0.124l-0.089,0.116l-0.098,0.116l-0.109,0.105
	l-0.109,0.103l-0.11,0.093l-0.113,0.089l-0.116,0.086l-0.063,0.042l-0.06,0.042l-0.119,0.076l-0.123,0.073l-0.119,0.065L75,18.779
	l-0.124,0.06l-0.12,0.046l-0.125,0.046l-0.068,0.034l-0.082,0.036l-0.104,0.035l-0.116,0.036l-0.122,0.038l-0.133,0.034
	l-0.142,0.035l-0.139,0.029l-0.14,0.023l-0.139,0.024l-0.134,0.014l-0.13,0.014H73.07l-0.1-0.012l-0.09-0.016l-0.076-0.029
	l-0.199-0.025l-0.192-0.026l-0.184-0.031l-0.18-0.034l-0.176-0.035l-0.167-0.04l-0.157-0.034l-0.164-0.041l-0.146-0.046l-0.151-0.05
	l-0.144-0.049l-0.133-0.049l-0.136-0.06l-0.132-0.058l-0.127-0.065l-0.126-0.066l-0.095-0.056l-0.023-0.014l-0.117-0.075
	l-0.118-0.074l-0.113-0.091l-0.114-0.087l-0.11-0.09l-0.113-0.094l-0.104-0.102l-0.111-0.106l-0.103-0.116l-0.107-0.118
	l-0.109-0.124l-0.106-0.128l-0.105-0.14l-0.108-0.141l-0.113-0.146l-0.025-0.108l-0.058-0.196l-0.066-0.279l-0.062-0.264
	l-0.041-0.251l-0.032-0.239l-0.018-0.228v-0.223l0.009-0.218l0.03-0.225l0.045-0.22l0.061-0.228l0.079-0.234l0.098-0.244l0.115-0.26
	l0.133-0.277l0.151-0.288l0.083-0.13l0.079-0.125l0.077-0.107l0.068-0.104l0.066-0.1l0.069-0.089l0.064-0.09l0.063-0.087
	l0.039-0.039l0.024-0.033l0.005-0.005l0.09-0.085l0.096-0.087l0.105-0.096l0.119-0.054l0.117-0.049l0.122-0.053l0.122-0.056
	l0.126-0.055l0.128-0.053l0.118-0.05l0.127-0.052l0.126-0.047l0.123-0.049l0.129-0.047l0.131-0.046l0.127-0.041l0.131-0.036
	l0.122-0.035l0.129-0.03l0.126-0.029l0.131-0.016l0.131-0.021l0.128-0.014l0.126-0.004h0.127h0.133l0.131,0.016l0.124,0.015
	l0.13,0.03l0.127,0.03l0.127,0.046l0.126,0.044l0.129,0.058l0.122,0.071l0.13,0.071l0.156,0.061l0.147,0.072l0.145,0.076
	l0.145,0.092l0.137,0.099l0.141,0.109l0.125,0.115l0.133,0.126l0.121,0.131l0.124,0.14l0.056,0.065l0.063,0.077l0.111,0.148
	l0.113,0.157l0.105,0.156l0.104,0.166l0.099,0.167l0.098,0.17l0.091,0.174l0.095,0.176l0.088,0.174l0.086,0.178l0.083,0.18
	l0.082,0.175l0.076,0.176l0.076,0.178l0.07,0.174l0.066,0.167l0.018,0.043c0.011-0.254,0.021-0.508,0.027-0.763l-0.01-0.018
	l-0.062-0.11l-0.06-0.111l-0.059-0.11l-0.057-0.108l-0.062-0.106l-0.057-0.107l-0.063-0.113L76.4,13.47l-0.053-0.109l-0.053-0.108
	l-0.059-0.11l-0.055-0.112l-0.051-0.11l-0.135-0.152l-0.134-0.148l-0.129-0.144l-0.126-0.141l-0.047-0.046l-0.083-0.085
	l-0.119-0.122l-0.115-0.126l-0.106-0.115l-0.104-0.111l-0.1-0.109l-0.086-0.094l-0.084-0.094l-0.075-0.091l-0.068-0.079
	l-0.058-0.072l-0.048-0.069l0.085,0.073l0.079,0.077l0.093,0.075l0.094,0.082l0.1,0.087l0.097,0.094l0.1,0.09l0.106,0.101
	l0.103,0.097l0.105,0.104l0.108,0.104l0.104,0.108l0.07,0.075l0.037,0.039l0.106,0.113l0.101,0.111l0.103,0.119l0.102,0.117
	l0.022,0.026l0.013,0.022l0.096,0.167l0.097,0.171l0.093,0.182l0.087,0.169l0.083,0.182l0.085,0.177l0.076,0.178l0.037,0.083
	c0.025-1.117-0.003-2.233-0.178-3.368l-0.097-0.105l-0.152-0.149l-0.157-0.139l-0.157-0.141l-0.166-0.13l-0.163-0.132l-0.168-0.125
	l-0.176-0.119l-0.17-0.115L75.13,9.512l-0.175-0.054l-0.162-0.05l-0.145-0.046L74.51,9.321l-0.118-0.032l-0.116-0.036l-0.104-0.026
	l-0.092-0.022l-0.092-0.024l-0.076-0.018l-0.072-0.015l-0.07-0.013l-0.063-0.007L73.646,9.12l-0.052-0.005l-0.052-0.007h-0.054
	l-0.053-0.001h-0.053h-0.052l-0.051,0.001h-0.058L73.16,9.111h-0.064h-0.07h-0.076h-0.086l-0.088-0.003l-0.101-0.001l-0.112-0.004
	l-0.12-0.007l-0.131-0.01l-0.283,0.082l-0.289,0.092l-0.276,0.102l-0.287,0.115l-0.278,0.123l-0.283,0.133l-0.268,0.145
	l-0.271,0.152l-0.265,0.162l-0.26,0.176l-0.25,0.183l-0.245,0.192l-0.238,0.2l-0.226,0.207l-0.215,0.218l-0.208,0.225l-0.021,0.024
	l-0.079,0.079l-0.208,0.224l-0.197,0.233l-0.109,0.138l-0.071,0.105l-0.174,0.244l-0.162,0.257l-0.146,0.265l-0.129,0.267
	l-0.113,0.28l-0.096,0.282l-0.081,0.292l-0.065,0.298l-0.049,0.303l-0.022,0.307l-0.008,0.313l0.016,0.321l0.033,0.326l0.061,0.332
	l0.061,0.229l0.023,0.099l0.091,0.314l0.096,0.305l0.101,0.285l0.105,0.272l0.107,0.26l0.121,0.244l0.12,0.237l0.039,0.063
	l0.09,0.154l0.13,0.209l0.144,0.199l0.146,0.182l0.152,0.177l0.16,0.162l0.16,0.152l0.177,0.141l0.181,0.135l0.185,0.12l0.195,0.119
	l0.202,0.105l0.211,0.098l0.219,0.088l0.227,0.083l0.231,0.072l0.244,0.07l0.253,0.06l0.261,0.053l0.271,0.049l0.276,0.04
	l0.295,0.037l0.297,0.03l0.307,0.028l0.047,0.008l0.049,0.007l0.052,0.008l0.057,0.004h0.061h0.068l0.064-0.004l0.07-0.002
	l0.073-0.006l0.075-0.007l0.072-0.008l0.078-0.01l0.078-0.011l0.082-0.014l0.081-0.009l0.074-0.019l0.085-0.016l0.079-0.013
	l0.084-0.017l0.074-0.016l0.077-0.016l0.077-0.02l0.074-0.02l0.068-0.01l0.073-0.02l0.064-0.021l0.066-0.017l0.063-0.012l0.054-0.02
	l0.049-0.017l0.055-0.018l0.041-0.012l0.099-0.035l0.097-0.04l0.091-0.04l0.095-0.046l0.091-0.044l0.091-0.049l0.089-0.054
	l0.091-0.056l0.082-0.052l0.088-0.061l0.083-0.062l0.089-0.064l0.077-0.063l0.086-0.063l0.077-0.07l0.084-0.068l0.078-0.066
	l0.078-0.072l0.076-0.072l0.076-0.073l0.08-0.072l0.076-0.073l0.076-0.076l0.075-0.074l0.074-0.073l0.072-0.076l0.072-0.071
	c-0.016-0.254-0.027-0.507-0.033-0.759L76.702,18.734z M75.577,11.618l0.133,0.094l0.127,0.096l0.12,0.099l0.119,0.11l0.112,0.106
	l0.106,0.117l0.037,0.05l0.055,0.068l0.082,0.131l0.071,0.131l0.06,0.141l0.043,0.144l0.027,0.15l0.001,0.01l-0.019-0.031
	L76.6,12.925l-0.06-0.106l-0.05-0.111l-0.055-0.113l-0.137-0.152l-0.133-0.148l-0.131-0.142l-0.125-0.139l-0.045-0.047l-0.083-0.087
	l-0.117-0.123l-0.112-0.124l-0.084-0.09L75.577,11.618z M75.468,11.757l0.124,0.143l0.054,0.066l0.057,0.076l0.121,0.146
	l0.108,0.161l0.008,0.012l-0.053-0.063l-0.008-0.007l-0.097-0.115l-0.101-0.122l-0.097-0.117l-0.091-0.124l-0.088-0.117
	l-0.002-0.002L75.468,11.757z M69.868,18.778l-0.118-0.076l-0.119-0.075l-0.117-0.089l-0.107-0.087l-0.112-0.09l-0.001-0.002
	l0.088,0.064l0.057,0.042l0.063,0.046l0.125,0.095l0.133,0.089l0.134,0.096L69.868,18.778z"/>
<polygon fill="#FFFFFF" points="69.889,21.957 69.855,21.879 69.804,21.802 69.732,21.721 69.532,21.721 69.212,21.682 
	69.161,21.702 69.084,21.746 68.995,21.869 68.931,21.859 68.881,21.884 68.805,21.924 68.681,22.09 68.569,22.257 68.458,22.431 
	68.346,22.604 68.238,22.777 68.129,22.954 68.022,23.128 67.908,23.308 67.802,23.481 67.686,23.655 67.572,23.824 67.45,23.994 
	67.323,24.159 67.192,24.32 67.059,24.474 66.91,24.623 66.913,24.691 66.91,24.754 66.902,24.816 66.896,24.88 66.885,24.939 
	66.877,25.001 66.872,25.052 66.876,25.106 66.88,25.157 66.894,25.202 66.918,25.247 66.952,25.29 66.997,25.322 67.064,25.359 
	67.146,25.386 67.246,25.41 67.607,25.358 67.805,25.197 67.809,25.191 67.887,25.179 68.08,25.017 68.176,24.85 68.27,24.68 
	68.356,24.511 68.448,24.342 68.544,24.17 68.644,24.002 68.743,23.828 68.846,23.659 68.948,23.49 69.058,23.328 69.172,23.16 
	69.289,22.994 69.416,22.833 69.543,22.676 69.682,22.519 69.826,22.365 69.867,22.283 69.896,22.201 69.91,22.119 69.908,22.039 
	"/>
<polygon fill="#FFFFFF" points="74.6,25.418 74.57,25.281 74.546,25.115 74.584,24.864 74.611,24.527 74.623,24.127 74.611,23.71 
	74.574,23.295 74.518,22.914 74.433,22.597 74.319,22.378 74.01,22.409 73.878,22.541 73.808,22.541 73.755,22.527 73.71,22.503 
	73.666,22.481 73.618,22.455 73.566,22.434 73.508,22.419 73.437,22.419 73.313,22.617 73.342,22.782 73.318,22.765 73.265,22.745 
	73.207,22.732 73.128,22.733 73.012,22.928 73.055,23.183 73.113,23.543 73.178,23.977 73.231,24.442 73.271,24.9 73.277,25.319 
	73.24,25.659 73.146,25.88 73.205,25.922 73.199,26.045 73.189,26.172 73.183,26.285 73.183,26.406 73.197,26.515 73.24,26.613 
	73.316,26.705 73.423,26.78 73.515,26.769 73.592,26.75 73.651,26.728 73.704,26.702 73.749,26.675 73.782,26.646 73.813,26.61 
	73.838,26.577 73.863,26.552 73.887,26.522 73.919,26.493 73.944,26.472 73.991,26.449 74.038,26.44 74.093,26.432 74.167,26.432 
	74.252,26.291 74.301,26.172 74.31,26.136 74.34,26.127 74.395,26.119 74.471,26.117 74.556,25.979 74.604,25.859 74.631,25.749 
	74.635,25.647 74.62,25.539 "/>
<polygon fill="none" points="71.624,8.053 71.668,8.16 71.763,8.228 72.069,8.21 72.17,8.083 72.188,8.004 72.309,7.997 
	72.337,7.964 72.351,7.961 72.396,7.954 72.439,7.942 72.483,7.919 72.526,7.879 72.57,7.821 72.692,7.842 72.654,7.736 
	72.639,7.736 72.675,7.728 72.716,7.708 72.764,7.666 72.81,7.607 72.931,7.63 72.895,7.521 72.83,7.521 72.729,7.171 72.651,6.817 
	72.604,6.467 72.57,6.115 72.544,5.761 72.521,5.409 72.485,5.056 72.431,4.708 72.181,4.495 72.077,4.493 71.983,4.508 
	71.899,4.546 71.828,4.598 71.763,4.664 71.717,4.738 71.664,4.761 71.594,4.812 71.524,4.881 71.476,4.958 71.432,5.048 
	71.393,5.141 71.36,5.239 71.337,5.341 71.318,5.442 71.311,5.542 71.299,5.633 71.297,5.715 71.297,5.792 71.299,5.854 "/>
<polygon fill="none" points="66.88,25.157 66.894,25.202 66.918,25.247 66.952,25.29 66.997,25.322 67.064,25.359 67.146,25.386 
	67.246,25.41 67.607,25.358 67.805,25.197 67.809,25.191 67.887,25.179 68.08,25.017 68.176,24.85 68.27,24.68 68.356,24.511 
	68.448,24.342 68.544,24.17 68.644,24.002 68.743,23.828 68.846,23.659 68.948,23.49 69.058,23.328 69.172,23.16 69.289,22.994 
	69.416,22.833 69.543,22.676 69.682,22.519 69.826,22.365 69.867,22.283 69.896,22.201 69.91,22.119 69.908,22.039 69.889,21.957 
	69.855,21.879 69.804,21.802 69.732,21.721 69.532,21.721 69.212,21.682 69.161,21.702 69.084,21.746 68.995,21.869 68.931,21.859 
	68.881,21.884 68.805,21.924 68.681,22.09 68.569,22.257 68.458,22.431 68.346,22.604 68.238,22.777 68.129,22.954 68.022,23.128 
	67.908,23.308 67.802,23.481 67.686,23.655 67.572,23.824 67.45,23.994 67.323,24.159 67.192,24.32 67.059,24.474 66.91,24.623 
	66.913,24.691 66.91,24.754 66.902,24.816 66.896,24.88 66.885,24.939 66.877,25.001 66.872,25.052 66.876,25.106 "/>
<polygon fill="none" points="61.713,15.378 61.777,15.401 61.843,15.421 61.907,15.438 61.972,15.457 62.036,15.469 62.103,15.486 
	62.171,15.499 62.235,15.506 62.303,15.519 62.368,15.53 62.435,15.538 62.503,15.542 62.572,15.552 62.641,15.558 62.709,15.565 
	62.776,15.57 62.848,15.577 62.914,15.584 62.98,15.591 63.053,15.598 63.117,15.607 63.185,15.612 63.256,15.624 63.325,15.631 
	63.39,15.642 63.453,15.656 63.522,15.668 63.591,15.684 63.659,15.697 63.726,15.717 63.792,15.736 63.855,15.76 63.84,15.854 
	63.935,15.934 64.04,15.814 64.588,15.973 64.682,15.965 64.768,15.954 64.84,15.948 64.902,15.941 64.961,15.934 65.014,15.922 
	65.056,15.911 65.095,15.894 65.13,15.877 65.167,15.849 65.198,15.818 65.229,15.778 65.267,15.729 65.304,15.668 65.309,15.661 
	65.324,15.654 65.364,15.631 65.398,15.607 65.43,15.574 65.46,15.534 65.495,15.486 65.536,15.424 65.576,15.354 65.622,15.274 
	65.442,14.875 65.353,14.824 65.26,14.784 65.167,14.744 65.076,14.702 64.984,14.663 64.891,14.629 64.801,14.596 64.711,14.568 
	64.617,14.536 64.529,14.51 64.435,14.484 64.344,14.459 64.255,14.435 64.159,14.417 64.071,14.397 63.979,14.377 63.89,14.362 
	63.799,14.341 63.707,14.327 63.614,14.313 63.52,14.294 63.432,14.282 63.342,14.271 63.25,14.253 63.158,14.241 63.066,14.224 
	62.974,14.214 62.884,14.198 62.791,14.182 62.702,14.17 62.607,14.151 62.517,14.137 62.435,14.174 62.385,14.238 62.351,14.313 
	62.337,14.389 62.287,14.381 62.206,14.417 62.155,14.481 62.122,14.556 62.104,14.648 62.091,14.744 62.091,14.774 62.081,14.78 
	62.049,14.815 62.015,14.864 61.979,14.92 61.933,14.992 61.887,15.008 61.851,15.026 61.822,15.059 61.784,15.104 61.748,15.166 
	61.696,15.237 61.713,15.318 "/>
<polygon fill="none" points="63.481,10.219 63.52,10.29 63.565,10.359 63.622,10.423 63.683,10.487 63.759,10.543 63.835,10.598 
	63.919,10.655 64.003,10.708 64.095,10.758 64.175,10.807 64.263,10.859 64.346,10.907 64.427,10.96 64.496,11.006 64.568,11.06 
	66.133,11.933 66.314,11.881 66.359,11.719 66.373,11.574 66.371,11.559 66.41,11.436 66.428,11.274 66.418,11.129 66.377,11 
	66.314,10.891 66.234,10.789 66.139,10.699 66.037,10.617 65.926,10.543 65.823,10.474 65.717,10.398 65.62,10.333 65.536,10.266 
	65.474,10.191 65.433,10.112 65.414,10.026 65.373,10.004 65.327,9.983 65.285,9.963 65.237,9.944 65.19,9.926 65.142,9.907 
	65.093,9.884 65.043,9.87 64.996,9.853 64.943,9.833 64.895,9.813 64.846,9.795 64.799,9.773 64.752,9.749 64.707,9.719 
	64.666,9.693 64.588,9.645 64.515,9.599 64.455,9.552 64.4,9.516 64.35,9.483 64.304,9.455 64.256,9.432 64.214,9.412 64.166,9.401 
	64.118,9.394 64.062,9.392 64.003,9.401 63.935,9.412 63.86,9.436 63.771,9.467 63.673,9.504 63.51,9.847 63.53,9.938 63.543,9.965 
	63.46,10.142 "/>
<polygon fill="none" points="66.393,19.394 66.348,19.331 66.293,19.272 66.229,19.208 66.149,19.146 66.045,19.195 65.946,19.245 
	65.843,19.296 65.744,19.343 65.642,19.394 65.542,19.446 65.44,19.498 65.342,19.548 65.247,19.598 65.145,19.652 65.047,19.703 
	64.951,19.757 64.85,19.811 64.753,19.859 64.656,19.916 64.557,19.97 64.459,20.022 64.361,20.079 64.268,20.133 64.171,20.186 
	64.071,20.24 63.978,20.295 63.878,20.349 63.783,20.408 63.683,20.462 63.589,20.517 63.489,20.574 63.395,20.634 63.299,20.689 
	63.2,20.747 63.103,20.801 63.005,20.858 62.98,21.043 62.979,21.063 62.92,21.095 62.822,21.153 62.797,21.335 62.786,21.485 
	62.794,21.604 62.811,21.687 62.851,21.748 62.896,21.786 62.958,21.8 63.022,21.797 63.103,21.78 63.184,21.75 63.27,21.715 
	63.311,21.694 63.27,21.729 63.211,21.78 63.161,21.833 63.105,21.895 63.061,21.958 63.008,22.034 63.021,22.084 62.98,22.127 
	62.926,22.188 62.874,22.255 62.827,22.327 62.883,22.535 62.989,22.578 63.059,22.555 63.128,22.521 63.199,22.491 63.268,22.455 
	63.334,22.419 63.413,22.378 63.483,22.337 63.554,22.294 63.63,22.25 63.7,22.201 63.774,22.152 63.848,22.103 63.919,22.055 
	63.993,21.997 64.067,21.948 64.138,21.895 64.208,21.842 64.279,21.783 64.35,21.725 64.42,21.67 64.488,21.611 64.557,21.556 
	64.625,21.497 64.688,21.44 64.75,21.382 64.816,21.323 64.875,21.266 64.936,21.211 64.998,21.155 65.053,21.099 65.104,21.046 
	65.16,20.991 65.211,20.968 65.267,20.946 65.324,20.918 65.386,20.885 65.45,20.855 65.509,20.822 65.576,20.782 65.642,20.749 
	65.704,20.708 65.768,20.663 65.832,20.623 65.892,20.574 65.946,20.529 66.003,20.477 66.053,20.432 66.102,20.381 66.148,20.327 
	66.188,20.273 66.221,20.217 66.247,20.165 66.271,20.107 66.273,20.099 66.283,20.087 66.33,20.034 66.365,19.98 66.402,19.929 
	66.43,19.874 66.451,19.814 66.471,19.755 66.48,19.697 66.478,19.638 66.475,19.577 66.455,19.517 66.428,19.459 "/>
<polygon fill="none" points="67.079,6.917 67.095,6.978 67.124,7.051 67.151,7.123 67.188,7.2 67.229,7.282 67.274,7.37 
	67.327,7.461 67.386,7.553 67.446,7.647 67.511,7.743 67.574,7.839 67.646,7.937 67.715,8.03 67.783,8.128 67.861,8.224 
	67.934,8.316 68.012,8.405 68.086,8.496 68.159,8.575 68.234,8.659 68.308,8.735 68.379,8.809 68.446,8.871 68.513,8.934 
	68.579,8.983 68.642,9.032 68.698,9.07 68.751,9.1 68.799,9.122 68.846,9.136 69.093,9.104 69.202,8.993 69.197,8.946 69.307,8.934 
	69.416,8.82 69.404,8.674 69.399,8.524 69.394,8.374 69.36,8.235 69.332,8.205 69.296,8.169 69.263,8.139 69.23,8.107 69.202,8.076 
	69.174,8.043 69.141,8.011 69.114,7.976 69.084,7.94 69.056,7.909 69.028,7.874 69.005,7.839 68.979,7.802 68.956,7.768 
	68.933,7.731 68.912,7.696 68.886,7.633 68.849,7.548 68.805,7.448 68.753,7.335 68.698,7.206 68.633,7.077 68.566,6.941 
	68.497,6.807 68.425,6.681 68.352,6.561 68.273,6.454 68.193,6.363 68.115,6.292 68.041,6.244 67.967,6.224 67.893,6.233 
	67.814,6.257 67.745,6.276 67.685,6.292 67.631,6.305 67.586,6.319 67.542,6.334 67.506,6.344 67.473,6.363 67.446,6.379 
	67.417,6.4 67.394,6.425 67.372,6.454 67.345,6.489 67.339,6.503 67.325,6.509 67.29,6.521 67.257,6.536 67.228,6.552 67.2,6.572 
	67.179,6.596 67.156,6.628 67.13,6.664 67.108,6.704 67.083,6.751 67.063,6.807 67.067,6.856 "/>
<path fill="none" d="M60.364,29.888c0.042-0.029,0.084-0.055,0.127-0.084c0.03-1.293,0.068-2.583,0.066-3.858
	C60.107,27.181,60.367,28.55,60.364,29.888z"/>
<polygon fill="none" points="73.113,23.543 73.178,23.977 73.231,24.442 73.271,24.9 73.277,25.319 73.24,25.659 73.146,25.88 
	73.205,25.922 73.199,26.045 73.189,26.172 73.183,26.285 73.183,26.406 73.197,26.515 73.24,26.613 73.316,26.705 73.423,26.78 
	73.515,26.769 73.592,26.75 73.651,26.728 73.704,26.702 73.749,26.675 73.782,26.646 73.813,26.61 73.838,26.577 73.863,26.552 
	73.887,26.522 73.919,26.493 73.944,26.472 73.991,26.449 74.038,26.44 74.093,26.432 74.167,26.432 74.252,26.291 74.301,26.172 
	74.31,26.136 74.34,26.127 74.395,26.119 74.471,26.117 74.556,25.979 74.604,25.859 74.631,25.749 74.635,25.647 74.62,25.539 
	74.6,25.418 74.57,25.281 74.546,25.115 74.584,24.864 74.611,24.527 74.623,24.127 74.611,23.71 74.574,23.295 74.518,22.914 
	74.433,22.597 74.319,22.378 74.01,22.409 73.878,22.541 73.808,22.541 73.755,22.527 73.71,22.503 73.666,22.481 73.618,22.455 
	73.566,22.434 73.508,22.419 73.437,22.419 73.313,22.617 73.342,22.782 73.318,22.765 73.265,22.745 73.207,22.732 73.128,22.733 
	73.012,22.928 73.055,23.183 "/>
<path fill="none" d="M61.83,28.998c0.022-0.012,0.044-0.021,0.067-0.033c0.002-0.117,0-0.234,0.004-0.35
	C61.876,28.74,61.854,28.87,61.83,28.998z"/>
<path fill="#D0A741" d="M59.658,32.557c0.112-0.161,0.202-0.327,0.283-0.494l-0.264-0.292
	C59.671,32.032,59.666,32.295,59.658,32.557z"/>
<path fill="#D0A741" d="M60.606,35.741c0.485-1.511,0.69-3.189,0.919-4.828c-0.359,0.226-0.712,0.479-1.062,0.763
	C60.454,33.042,60.48,34.404,60.606,35.741z"/>
<path fill="#D0A741" d="M70.848,34.104c-1.505,0.175-3.01-0.366-3.528-1.177c-0.236-0.367-0.457-1.002-0.457-1.436
	c0-0.741,0.392-1.504,0.912-2.022c-1.524-0.291-3.744-0.019-5.896,1.219c-0.01,1.274-0.008,2.548-0.002,3.821
	c0.006-0.396,0.019-0.79,0.06-1.177c0.249,0.805,0.162,1.651,0.214,2.467c0.232-0.51,0.375-1.103,0.398-1.664
	c0.032,0.516,0.326,0.972,0.498,1.423c0.095-0.244,0.325-0.533,0.43-0.798c0.557,0.521,0.755,1.36,1.284,1.895
	c0.07-0.293,0.446-0.764,0.495-1.152c0.121,0.322,0.484,0.693,0.598,0.982c0.143-0.262,0.413-0.433,0.509-0.811
	c0.125,1.494,1.473,0.751,2.341,0.096c-0.069,0.303,0.219,0.741,0.207,0.966c0.044-0.091,0.072-0.176,0.093-0.269
	c0.256,0.151,0.99,0.396,1.284,0.511c0.102-0.162,0.569-0.462,0.673-0.653c0.234,0.227,0.695,0.437,0.897,0.653
	c-0.013,0.009,0.297-0.253,0.274-0.328c-0.01-0.007-0.025-0.014-0.034-0.021c0.009,0.007,0.024,0.013,0.034,0.021
	c0.267,0.196,0.912,0.367,1.213,0.575c0.146-0.1,0.371-0.486,0.425-0.592c0.046,0.104,0.139,0.146,0.281,0.14
	c0.354-0.539,0.466-1.152,0.603-1.775c-0.084,0.017,0.519,0.267,0.509,0.263c0.03-0.069,0.197-0.589,0.256-0.64
	c0.137,0.176,0.476,0.324,0.62,0.591c1.022-0.891,1.104-2.136,0.983-3.423C75.53,32.993,73.546,33.786,70.848,34.104z"/>
<path fill="#D0A741" d="M60.558,25.946c0.002,1.274-0.036,2.565-0.066,3.858c0.443-0.302,0.89-0.572,1.339-0.807
	c0.023-0.127,0.046-0.258,0.071-0.383c-0.004,0.116-0.002,0.233-0.004,0.35c2.737-1.41,5.488-1.579,7.184-0.85l0.772,0.333
	l-0.438,0.718c-0.444,0.729-0.95,2.045-0.62,2.555c0.181,0.281,0.777,0.389,1.635,0.286c2.477-0.291,4.922-0.876,6.412-1.642
	c-0.1-0.739-0.178-1.453-0.09-2.082c0.371-2.675,0.527-5.143,0.17-7.901c-0.043-0.344-0.068-0.682-0.09-1.019l-0.072,0.071
	l-0.072,0.076l-0.074,0.073l-0.075,0.074l-0.076,0.076l-0.076,0.073l-0.08,0.072l-0.076,0.073l-0.076,0.072l-0.078,0.072
	l-0.078,0.066l-0.084,0.068l-0.077,0.07l-0.086,0.063l-0.077,0.063l-0.089,0.064l-0.083,0.062l-0.088,0.061l-0.082,0.052
	l-0.091,0.056l-0.089,0.054l-0.091,0.049l-0.091,0.044l-0.095,0.046l-0.091,0.04l-0.097,0.04l-0.099,0.035l-0.041,0.012
	l-0.055,0.018l-0.049,0.017l-0.054,0.02l-0.063,0.012l-0.066,0.017l-0.064,0.021l-0.073,0.02l-0.068,0.01l-0.074,0.02l-0.077,0.02
	l-0.077,0.016l-0.074,0.016l-0.084,0.017l-0.079,0.013l-0.085,0.016l-0.074,0.019l-0.081,0.009l-0.082,0.014l-0.078,0.011
	l-0.078,0.01l-0.072,0.008l-0.075,0.007l-0.073,0.006l-0.07,0.002l-0.064,0.004h-0.068h-0.061l-0.057-0.004l-0.052-0.008
	l-0.049-0.007l-0.047-0.008l-0.307-0.028l-0.297-0.03l-0.295-0.037l-0.276-0.04l-0.271-0.049l-0.261-0.053l-0.253-0.06l-0.244-0.07
	l-0.231-0.072l-0.227-0.083l-0.219-0.088l-0.211-0.098L69.13,20.54l-0.195-0.119l-0.185-0.12l-0.181-0.135l-0.177-0.141l-0.16-0.152
	l-0.16-0.162l-0.152-0.177l-0.146-0.182l-0.144-0.199l-0.13-0.209l-0.09-0.154l-0.039-0.063l-0.12-0.237l-0.121-0.244l-0.107-0.26
	l-0.105-0.272l-0.101-0.285l-0.096-0.305l-0.091-0.314l-0.023-0.099l-0.061-0.229l-0.061-0.332l-0.033-0.326l-0.016-0.321
	l0.008-0.313l0.022-0.307l0.049-0.303l0.065-0.298l0.081-0.292l0.096-0.282l0.113-0.28l0.129-0.267l0.146-0.265l0.162-0.257
	l0.174-0.244l0.071-0.105l0.109-0.138l0.197-0.233l0.208-0.224l0.079-0.079l0.021-0.024l0.208-0.225l0.215-0.218l0.226-0.207
	l0.238-0.2l0.245-0.192l0.25-0.183l0.26-0.176l0.265-0.162l0.271-0.152l0.268-0.145l0.283-0.133l0.278-0.123l0.287-0.115
	l0.276-0.102l0.289-0.092l0.283-0.082l0.131,0.01l0.12,0.007l0.112,0.004l0.101,0.001l0.088,0.003h0.086h0.076h0.07h0.064
	l0.063-0.003h0.058l0.051-0.001h0.052h0.053l0.053,0.001h0.054l0.052,0.007l0.052,0.005l0.059,0.009l0.063,0.007l0.07,0.013
	l0.072,0.015l0.076,0.018l0.092,0.024l0.092,0.022l0.104,0.026l0.116,0.036l0.118,0.032l0.139,0.042l0.145,0.046l0.162,0.05
	l0.175,0.054l0.182,0.111l0.17,0.115l0.176,0.119l0.168,0.125l0.163,0.132l0.166,0.13l0.157,0.141l0.157,0.139l0.152,0.149
	l0.097,0.105c-0.012-0.073-0.014-0.144-0.026-0.216c-0.156-0.919-0.082-1.875-0.018-2.827l-0.057,0.087l-0.142,0.22l-0.123,0.183
	l-0.097,0.148l-0.063,0.107l-0.146-0.023l-0.076,0.115l-0.064,0.104l-0.218-0.034l-0.271-0.102l-0.216,0.011l-0.12-0.098l0.008-0.08
	l0.029-0.122l0.057-0.149l0.067-0.169l0.087-0.19l0.098-0.204l0.105-0.219l0.121-0.219l0.119-0.221l0.123-0.218l0.122-0.214
	l0.121-0.193l0.111-0.183l0.109-0.159l0.09-0.129l0.08-0.096l0.129,0.008l0.035-0.051c-0.164-1.585-1.104-3.083-1.32-4.631
	c-0.022,0.274-0.185,0.479-0.229,0.728c0-0.07,0.005-0.145,0.015-0.215c-0.037-0.016-0.284,0.29-0.669-0.525
	c-0.014,0.004-0.446,0.231-0.431,0.236c-0.739-0.377-1.493-0.364-2.172,0.064c-1.414-1.926-2.168-1.264-4.859-0.845
	c0.18-0.026-1.77,0.382-1.627,0.333c-0.649,0.231-0.774-0.027-0.897,0.652c-0.259-0.033-0.606,0.054-0.79,0.165
	c-0.137-0.052-0.365-0.191-0.501-0.258c-0.131,0.372-0.521,0.62-0.48,1.109c-0.146-0.318-0.415-0.605-0.442-1.146
	c-0.309,0.398-0.653,0.773-0.628,1.423c0.057-0.438-0.169-0.886-0.223-1.125c-0.162,0.299-0.718,0.656-0.942,0.969
	c-0.135-0.159-0.281-0.346-0.381-0.467c-0.235,0.643-0.543,1.739-0.444,2.368c0,8.625,0.229,17.27,0.039,25.896
	c0.216-0.17,0.435-0.335,0.653-0.489C60.367,28.55,60.107,27.181,60.558,25.946z M73.128,22.733l0.079-0.001l0.058,0.013l0.054,0.02
	l0.023,0.018l-0.029-0.166l0.124-0.197h0.071l0.059,0.014l0.052,0.021l0.048,0.026l0.044,0.022l0.045,0.024l0.053,0.014h0.07
	l0.132-0.132l0.31-0.031l0.113,0.219l0.085,0.317l0.057,0.381l0.037,0.415l0.012,0.417l-0.012,0.4l-0.027,0.336l-0.038,0.251
	l0.024,0.166l0.029,0.137l0.021,0.121l0.015,0.109l-0.004,0.101l-0.026,0.11l-0.049,0.121l-0.085,0.138l-0.076,0.002l-0.055,0.008
	l-0.03,0.009l-0.009,0.036l-0.049,0.119l-0.085,0.141h-0.074l-0.055,0.009l-0.047,0.009l-0.047,0.022l-0.025,0.021l-0.032,0.029
	l-0.023,0.03l-0.025,0.024l-0.025,0.033l-0.03,0.036l-0.033,0.03l-0.045,0.026l-0.053,0.026l-0.06,0.023l-0.077,0.019l-0.092,0.011
	l-0.106-0.076l-0.076-0.092l-0.043-0.098l-0.015-0.109v-0.121l0.007-0.113l0.01-0.127l0.006-0.123l-0.059-0.042l0.094-0.221
	l0.037-0.34L73.271,24.9l-0.04-0.458l-0.054-0.465l-0.064-0.433l-0.059-0.361l-0.043-0.254L73.128,22.733z M66.877,25.001
	l0.008-0.063l0.011-0.059l0.007-0.063l0.008-0.063l0.003-0.063l-0.003-0.068l0.148-0.149l0.134-0.154l0.131-0.161l0.127-0.166
	l0.122-0.169l0.113-0.169l0.116-0.174l0.106-0.174l0.114-0.179l0.106-0.174l0.109-0.177l0.107-0.173l0.112-0.173l0.111-0.174
	l0.111-0.167l0.124-0.166l0.076-0.04l0.05-0.025l0.064,0.009l0.089-0.123l0.077-0.043l0.051-0.021l0.32,0.04h0.2l0.071,0.081
	l0.052,0.077l0.033,0.078l0.02,0.082l0.002,0.08l-0.014,0.083l-0.029,0.082l-0.041,0.082l-0.145,0.154l-0.139,0.157l-0.127,0.157
	l-0.127,0.162l-0.117,0.166l-0.114,0.168l-0.109,0.162l-0.103,0.169l-0.103,0.169l-0.1,0.174l-0.1,0.168l-0.096,0.172l-0.092,0.169
	L68.27,24.68l-0.094,0.169l-0.096,0.167l-0.193,0.162l-0.078,0.012l-0.004,0.006l-0.197,0.161l-0.361,0.052l-0.1-0.024l-0.082-0.027
	l-0.067-0.037l-0.045-0.032l-0.034-0.043l-0.024-0.045l-0.014-0.045l-0.004-0.051l-0.004-0.054L66.877,25.001z M71.297,5.715
	l0.002-0.082l0.012-0.091l0.008-0.1l0.019-0.101l0.023-0.103l0.032-0.098l0.039-0.093l0.044-0.09l0.049-0.077l0.069-0.069l0.07-0.05
	l0.053-0.023l0.046-0.074l0.065-0.066l0.071-0.052l0.084-0.038l0.094-0.016l0.104,0.002l0.25,0.214l0.055,0.347l0.035,0.353
	l0.023,0.352l0.026,0.354l0.033,0.352l0.048,0.35l0.077,0.354l0.102,0.351h0.064l0.036,0.108L72.81,7.607l-0.046,0.059l-0.048,0.042
	l-0.041,0.019l-0.036,0.009h0.016l0.038,0.106L72.57,7.821l-0.044,0.058l-0.043,0.04l-0.044,0.023l-0.044,0.012l-0.045,0.008
	l-0.014,0.002l-0.028,0.033l-0.121,0.007L72.17,8.083L72.069,8.21l-0.307,0.018L71.668,8.16l-0.044-0.106l-0.325-2.199l-0.002-0.063
	V5.715z M67.083,6.751l0.025-0.047l0.021-0.04l0.026-0.036l0.022-0.032L67.2,6.572l0.027-0.021l0.029-0.016l0.033-0.015l0.035-0.013
	l0.014-0.006l0.006-0.014l0.027-0.035l0.021-0.029L67.417,6.4l0.029-0.021l0.026-0.016l0.033-0.019l0.036-0.01l0.044-0.015
	l0.045-0.015l0.054-0.013l0.061-0.016l0.069-0.019l0.078-0.024l0.074-0.009l0.074,0.02l0.074,0.048l0.078,0.071l0.08,0.091
	l0.078,0.106l0.073,0.121l0.072,0.125l0.069,0.134l0.066,0.136l0.065,0.129l0.055,0.129l0.052,0.113l0.044,0.1l0.037,0.085
	l0.026,0.063l0.021,0.036l0.023,0.036l0.023,0.035l0.025,0.037l0.023,0.035l0.027,0.035l0.028,0.032l0.03,0.035l0.026,0.036
	l0.033,0.032l0.028,0.033l0.028,0.032l0.032,0.032l0.033,0.03l0.036,0.035l0.028,0.03l0.033,0.139l0.006,0.15l0.005,0.15
	l0.012,0.146l-0.109,0.113l-0.109,0.013l0.005,0.047l-0.109,0.111l-0.247,0.031l-0.047-0.014L68.751,9.1l-0.053-0.03l-0.057-0.038
	l-0.063-0.049l-0.066-0.05l-0.066-0.063l-0.067-0.062l-0.071-0.073l-0.073-0.076l-0.075-0.084l-0.073-0.079l-0.074-0.09
	l-0.078-0.089l-0.072-0.092l-0.078-0.096L67.715,8.03l-0.068-0.093l-0.072-0.098l-0.063-0.096l-0.064-0.096l-0.061-0.094
	l-0.059-0.092L67.274,7.37l-0.046-0.088L67.188,7.2l-0.036-0.078l-0.027-0.071l-0.029-0.073l-0.016-0.062l-0.012-0.061l-0.004-0.049
	L67.083,6.751z M66.455,19.517l0.02,0.061l0.003,0.061l0.003,0.059l-0.01,0.059l-0.02,0.059l-0.021,0.059l-0.027,0.056l-0.037,0.051
	l-0.035,0.054l-0.047,0.054l-0.01,0.012l-0.002,0.008l-0.024,0.058l-0.026,0.053l-0.033,0.056l-0.039,0.054l-0.047,0.055
	l-0.049,0.05l-0.05,0.045l-0.057,0.053l-0.055,0.045l-0.06,0.049l-0.064,0.04l-0.063,0.044l-0.063,0.042l-0.065,0.033l-0.067,0.04
	l-0.059,0.033l-0.064,0.03l-0.062,0.033l-0.058,0.028l-0.056,0.022l-0.051,0.022l-0.057,0.056l-0.051,0.053l-0.055,0.056
	l-0.063,0.056l-0.061,0.054l-0.059,0.058l-0.066,0.059l-0.063,0.058l-0.063,0.057l-0.068,0.059l-0.068,0.055L64.42,21.67
	l-0.07,0.055l-0.07,0.058l-0.071,0.059l-0.07,0.053l-0.07,0.054l-0.074,0.049l-0.074,0.058l-0.071,0.048l-0.073,0.049L63.7,22.201
	l-0.07,0.049l-0.076,0.044l-0.07,0.043l-0.07,0.041l-0.079,0.042l-0.066,0.036l-0.068,0.036l-0.071,0.029l-0.069,0.035l-0.069,0.023
	l-0.106-0.043l-0.056-0.208l0.047-0.072l0.052-0.067l0.055-0.06l0.041-0.043l-0.014-0.05l0.053-0.076l0.045-0.064l0.056-0.062
	l0.05-0.053l0.059-0.051l0.041-0.034l-0.041,0.021l-0.086,0.035l-0.081,0.03l-0.08,0.017L62.958,21.8l-0.062-0.014l-0.046-0.038
	l-0.04-0.062l-0.017-0.083l-0.008-0.118l0.011-0.15l0.025-0.182l0.098-0.058l0.059-0.032l0.002-0.02l0.024-0.185l0.098-0.057
	l0.098-0.054l0.099-0.058l0.096-0.055l0.095-0.06l0.1-0.058l0.094-0.054l0.101-0.055l0.095-0.059l0.1-0.054l0.094-0.056l0.1-0.054
	l0.097-0.053l0.094-0.054l0.098-0.056l0.098-0.053l0.1-0.054l0.097-0.057l0.097-0.049l0.102-0.054l0.096-0.054l0.098-0.051
	l0.103-0.054l0.095-0.05l0.099-0.05l0.102-0.052l0.1-0.052l0.103-0.051l0.099-0.047l0.104-0.052l0.099-0.05l0.104-0.048l0.079,0.061
	l0.064,0.064l0.055,0.059l0.045,0.063l0.035,0.065L66.455,19.517z M63.53,9.938L63.51,9.847l0.163-0.343l0.098-0.037l0.09-0.031
	l0.074-0.024l0.068-0.011l0.059-0.009l0.057,0.002l0.048,0.007l0.048,0.011l0.042,0.021l0.048,0.022l0.046,0.028L64.4,9.516
	l0.055,0.036l0.06,0.046l0.073,0.046l0.078,0.048l0.041,0.026l0.045,0.03l0.047,0.024l0.047,0.022l0.049,0.018l0.049,0.021
	l0.053,0.019l0.047,0.017l0.05,0.015l0.049,0.022l0.049,0.019l0.047,0.018l0.048,0.019l0.042,0.021l0.046,0.021l0.041,0.021
	l0.019,0.086l0.041,0.079l0.063,0.075l0.084,0.068l0.097,0.064l0.106,0.076l0.103,0.069l0.111,0.074l0.102,0.082l0.096,0.09
	l0.08,0.102L66.377,11l0.041,0.128l0.01,0.145l-0.018,0.162l-0.039,0.124l0.002,0.015l-0.014,0.145l-0.045,0.162l-0.182,0.052
	l-1.564-0.873l-0.072-0.053l-0.069-0.046l-0.081-0.053l-0.083-0.048l-0.088-0.052l-0.08-0.049l-0.092-0.05l-0.084-0.053
	l-0.084-0.057l-0.076-0.055l-0.076-0.056l-0.061-0.064l-0.057-0.064L63.52,10.29l-0.038-0.071l-0.021-0.077l0.083-0.177L63.53,9.938
	z M61.748,15.166l0.036-0.062l0.038-0.045l0.028-0.033l0.036-0.019l0.046-0.016l0.047-0.072l0.035-0.056l0.034-0.049l0.032-0.036
	l0.01-0.005v-0.031l0.014-0.095l0.018-0.093l0.033-0.075l0.051-0.063l0.081-0.036l0.05,0.008l0.014-0.076l0.034-0.075l0.05-0.064
	l0.082-0.037l0.091,0.014l0.095,0.019l0.089,0.012l0.093,0.017l0.09,0.016l0.093,0.01l0.092,0.018l0.092,0.012l0.092,0.018
	l0.09,0.011l0.088,0.013l0.095,0.019l0.093,0.014l0.092,0.015l0.091,0.021l0.089,0.016l0.093,0.02l0.088,0.021l0.096,0.018
	l0.089,0.024l0.091,0.024l0.095,0.026l0.088,0.026l0.094,0.032l0.09,0.028l0.09,0.033l0.094,0.034l0.092,0.039l0.091,0.042
	l0.093,0.04l0.093,0.041l0.09,0.051l0.18,0.399l-0.046,0.08l-0.04,0.07l-0.041,0.062l-0.035,0.047l-0.03,0.04l-0.031,0.033
	l-0.034,0.024l-0.04,0.022l-0.016,0.007l-0.005,0.007l-0.037,0.061l-0.037,0.049l-0.031,0.04l-0.031,0.031l-0.037,0.028
	l-0.035,0.017l-0.039,0.018l-0.042,0.011l-0.053,0.012l-0.059,0.007l-0.063,0.007l-0.072,0.005l-0.086,0.011l-0.094,0.008
	l-0.548-0.159l-0.105,0.12l-0.095-0.081l0.016-0.093l-0.063-0.024l-0.066-0.019l-0.066-0.02l-0.068-0.013l-0.068-0.016l-0.069-0.013
	l-0.063-0.014l-0.064-0.011l-0.069-0.007l-0.071-0.012l-0.067-0.005l-0.064-0.009l-0.072-0.007l-0.066-0.007l-0.066-0.007
	l-0.071-0.006l-0.067-0.005l-0.068-0.007l-0.068-0.006l-0.069-0.01l-0.068-0.004l-0.066-0.007l-0.065-0.011l-0.067-0.013
	l-0.064-0.007l-0.068-0.012l-0.066-0.018l-0.064-0.012l-0.064-0.02l-0.064-0.016l-0.065-0.021l-0.064-0.022v-0.061l-0.017-0.081
	L61.748,15.166z"/>
<path fill="#FFFFFF" d="M61.83,28.998c-0.117,0.625-0.215,1.266-0.305,1.915c0.116-0.074,0.234-0.155,0.353-0.224
	c0.002-0.575,0.008-1.15,0.02-1.725C61.874,28.977,61.853,28.986,61.83,28.998z"/>
<path fill="#FFFFFF" d="M59.711,30.377c-0.01,0.464-0.021,0.929-0.033,1.393l0.264,0.292c0.333-0.696,0.421-1.43,0.423-2.174
	C60.146,30.042,59.927,30.207,59.711,30.377z"/>
<path fill="#FFFFFF" d="M60.491,29.804c-0.014,0.624-0.023,1.248-0.027,1.871c0.35-0.283,0.702-0.537,1.062-0.763
	c0.09-0.649,0.188-1.291,0.305-1.915C61.381,29.232,60.935,29.502,60.491,29.804z"/>
<path fill="#FFFFFF" d="M67.774,29.47c-0.521,0.518-0.912,1.281-0.912,2.022c0,0.434,0.221,1.069,0.457,1.436
	c0.519,0.811,2.023,1.352,3.528,1.177c2.698-0.318,4.683-1.112,6.173-2.315c-0.045-0.475-0.115-0.955-0.178-1.425
	c-1.49,0.766-3.936,1.351-6.412,1.642c-0.857,0.103-1.454-0.005-1.635-0.286c-0.33-0.509,0.176-1.826,0.62-2.555l0.438-0.718
	l-0.772-0.333c-1.695-0.729-4.446-0.56-7.184,0.85c-0.012,0.575-0.018,1.149-0.02,1.725C64.03,29.451,66.25,29.179,67.774,29.47z"/>
<path fill="#D0A741" d="M70.257,33.387c1.283,0.024,2.603-0.443,3.789-0.8c0.933-0.278,2.509-0.776,3.174-1.477
	c-1.977,1.538-4.155,2.34-6.7,2.34"/>
<path fill="#E1BE3C" d="M33.613,36.813c0.008,0.007,0.025,0.014,0.035,0.021C33.646,36.822,33.636,36.814,33.613,36.813z"/>
<path fill="#D0A741" d="M35.144,17.442c-0.305,1.26,0.228,3.927,0.526,5.406l0.111,0.559c0.245,1.265,0.878,3.338,1.297,4.711
	c0.294,0.965,0.437,1.438,0.455,1.594c0.044,0.393,0.18,1.587-0.53,1.784c-0.787,0.218-1.87-1.123-2.349-2.175
	c-0.425-0.938-0.667-2.134-0.9-3.292c-0.167-0.826-0.34-1.667-0.577-2.426c-0.179,1.029-0.42,2.149-0.657,3.241
	c-0.222,1.021-0.431,1.986-0.585,2.858c-0.333,1.889-0.962,2.107-1.308,2.071c-0.638-0.069-1.042-1.099-0.983-2.505
	c0.014-0.333,0.154-1.095,0.348-2.152c0.457-2.488,1.22-6.651,0.873-8.569l-0.002-0.013l-0.001-0.014
	c-0.025-0.329-0.04-0.625-0.049-0.91c-0.731,0.202-1.256,0.567-1.537,1.11c-0.483,0.93-0.162,2.084-0.057,2.318
	c0.221,0.487,0.259,1.167,0.26,1.195L29.49,22.4l-0.147,0.074c-0.003,0.001-0.19,0.096-0.38,0.196
	c0.034,0.287,0.043,0.569,0.006,0.832c-0.947-0.04-1.433-2.033-2.381-2.085c-0.296,0.969,0.461,3.308,0.704,4.254
	c0.352,1.371,1.422,4.007,1.467,4.276c0.339,1.957-1.085,0.842-1.676-0.273c-0.652-1.239-0.838-3.2-1.52-4.501
	c-0.111,1.486-0.272,3.434-0.443,4.922c-0.24,2.053-1.446,1.517-1.48-0.188c-0.008-0.772,0.854-5.618,0.398-7.487
	c-0.047-0.345-0.074-0.615-0.09-0.842c-1.421,0.564-1.502,1.616-1.399,2.745c0.032,0.332-0.234,1.453-0.865,0.606
	c-0.629-0.853-0.19-2.167-0.004-2.91c0.365-1.444,1.931-2.328,2.362-2.545c0.023-0.061,0.046-0.115,0.062-0.177l0.247-0.375
	c-0.585-0.872-0.616-3.237,1.013-2.614c0.923,0.357,0.869,2.107,0.089,2.863c0.645,0.152,1.179,0.389,1.634,0.67
	c0.032-0.65,0.168-1.373,0.423-2.176c0.65-2.062,3.058-3.304,3.907-3.686c0-0.001,0-0.001,0-0.001
	c0.021-0.046,0.042-0.089,0.054-0.128l0.013-0.041l0.026-0.034l0.298-0.404c-0.513-1.033-0.542-2.836,0.189-3.654
	c0.317-0.354,0.903-0.684,1.896-0.238c0.538,0.241,0.892,0.775,0.997,1.502c0.141,0.973-0.187,2.082-0.792,2.789
	c1.12,0.528,2.92,1.399,4.25,2.45c0.072-1.825,0.175-3.623-0.137-5.471c-0.26-1.546,0.124-3.193,0.024-4.749
	c-0.108-1.653-1.119-3.199-1.342-4.802c-0.022,0.274-0.185,0.481-0.23,0.731c0-0.075,0.005-0.148,0.016-0.22
	c-0.035-0.012-0.283,0.291-0.668-0.521c-0.018,0.005-0.452,0.23-0.433,0.233c-0.738-0.373-1.493-0.364-2.175,0.063
	c-1.414-1.925-2.163-1.262-4.856-0.844c0.179-0.027-1.767,0.383-1.627,0.331c-0.648,0.234-0.775-0.023-0.894,0.652
	c-0.263-0.03-0.61,0.055-0.792,0.169c-0.14-0.054-0.364-0.196-0.503-0.261c-0.127,0.374-0.523,0.623-0.48,1.108
	c-0.147-0.316-0.415-0.601-0.444-1.146c-0.309,0.396-0.656,0.774-0.625,1.423c0.053-0.434-0.168-0.886-0.222-1.123
	c-0.166,0.295-0.721,0.656-0.944,0.968c-0.135-0.161-0.28-0.343-0.382-0.467c-0.236,0.645-0.541,1.74-0.442,2.366
	c0,9.354,0.274,18.726-0.017,28.076c1.415-2.046,0.142-4.521,0.899-6.606c0.006,3.236-0.251,6.582,0.05,9.792
	c0.717-2.231,0.819-4.829,1.294-7.126c-0.05,2-0.035,4-0.024,6.001c0.004-0.432,0.017-0.862,0.059-1.283
	c0.251,0.806,0.161,1.653,0.214,2.467c0.233-0.509,0.37-1.104,0.399-1.665c0.034,0.518,0.325,0.974,0.498,1.424
	c0.093-0.244,0.324-0.532,0.43-0.798c0.555,0.521,0.754,1.361,1.283,1.895c0.071-0.292,0.442-0.765,0.498-1.154
	c0.121,0.325,0.483,0.698,0.596,0.985c0.14-0.259,0.412-0.434,0.51-0.813c0.128,1.499,1.47,0.753,2.338,0.099
	c-0.069,0.3,0.223,0.738,0.208,0.962c0.043-0.084,0.073-0.175,0.092-0.266c0.257,0.152,0.993,0.396,1.289,0.507
	c0.097-0.161,0.567-0.463,0.67-0.652c0.233,0.225,0.699,0.438,0.895,0.654c-0.01,0.008,0.295-0.251,0.276-0.327
	c-0.01-0.007-0.027-0.013-0.035-0.021c0.022,0.001,0.032,0.009,0.035,0.021c0.265,0.195,0.91,0.366,1.208,0.576
	c0.149-0.104,0.378-0.49,0.429-0.594c0.045,0.101,0.141,0.147,0.282,0.135c0.352-0.537,0.464-1.149,0.602-1.771
	c-0.085,0.016,0.516,0.266,0.513,0.263c0.024-0.068,0.196-0.587,0.254-0.638c0.136,0.173,0.471,0.32,0.619,0.593
	c1.992-1.737,0.416-4.818,0.713-6.931c0.373-2.676,0.528-5.146,0.172-7.906c-0.075-0.579-0.106-1.148-0.123-1.714
	c-0.362-0.162-0.73-0.345-1.095-0.531C36.491,17.941,35.746,17.571,35.144,17.442z"/>
<path fill="#E1BE3C" d="M23.4,36.597c0-0.6-0.004-1.2-0.007-1.8C23.387,35.396,23.4,36.001,23.4,36.597z"/>
<path fill="#FFFFFF" d="M38.346,16.219c-1.33-1.05-3.13-1.921-4.25-2.45c0.606-0.707,0.933-1.816,0.792-2.789
	c-0.105-0.728-0.459-1.261-0.997-1.502c-0.993-0.445-1.579-0.116-1.896,0.238c-0.73,0.818-0.702,2.621-0.189,3.654l-0.298,0.404
	l-0.026,0.034l-0.013,0.041c-0.012,0.039-0.032,0.083-0.054,0.128c0,0,0,0,0,0.001c-0.85,0.382-3.257,1.624-3.907,3.686
	c-0.254,0.804-0.391,1.526-0.423,2.176c-0.455-0.282-0.989-0.519-1.634-0.67c0.78-0.756,0.834-2.506-0.089-2.863
	c-1.628-0.624-1.598,1.742-1.013,2.614l-0.247,0.375c-0.016,0.062-0.039,0.116-0.062,0.177c-0.431,0.218-1.997,1.101-2.362,2.545
	c-0.187,0.743-0.625,2.057,0.004,2.91c0.631,0.847,0.897-0.274,0.865-0.606c-0.103-1.129-0.022-2.181,1.399-2.745
	c0.016,0.227,0.042,0.497,0.09,0.842c0.456,1.869-0.406,6.714-0.398,7.487c0.034,1.705,1.24,2.241,1.48,0.188
	c0.17-1.488,0.332-3.436,0.443-4.922c0.682,1.301,0.868,3.262,1.52,4.501c0.591,1.115,2.015,2.229,1.676,0.273
	c-0.045-0.269-1.115-2.905-1.467-4.276c-0.242-0.946-1-3.285-0.704-4.254c0.948,0.053,1.434,2.045,2.381,2.085
	c0.037-0.262,0.027-0.544-0.006-0.832c0.19-0.101,0.377-0.195,0.38-0.196L29.49,22.4l-0.009-0.166
	c-0.001-0.028-0.04-0.708-0.26-1.195c-0.105-0.234-0.426-1.388,0.057-2.318c0.281-0.543,0.806-0.909,1.537-1.11
	c0.01,0.285,0.024,0.582,0.049,0.91l0.001,0.014l0.002,0.013c0.347,1.917-0.417,6.081-0.873,8.569
	c-0.194,1.057-0.334,1.819-0.348,2.152c-0.059,1.406,0.345,2.436,0.983,2.505c0.346,0.037,0.975-0.182,1.308-2.071
	c0.154-0.872,0.363-1.837,0.585-2.858c0.236-1.092,0.478-2.212,0.657-3.241c0.237,0.759,0.411,1.6,0.577,2.426
	c0.233,1.157,0.475,2.354,0.9,3.292c0.479,1.052,1.562,2.393,2.349,2.175c0.709-0.196,0.574-1.391,0.53-1.784
	c-0.018-0.157-0.161-0.629-0.455-1.594c-0.419-1.373-1.052-3.446-1.297-4.711l-0.111-0.559c-0.299-1.479-0.831-4.146-0.526-5.406
	c0.602,0.129,1.347,0.499,2.079,0.872c0.365,0.186,0.733,0.37,1.095,0.531C38.291,17.958,38.311,17.084,38.346,16.219z"/>
<path fill="#FFFFFF" d="M39.629,10.966c-0.043,0.013-0.09,0.03-0.141,0.056C39.537,11,39.582,10.989,39.629,10.966z"/>
<path fill="#FFFFFF" d="M46.576,9.605c-0.013,0.004-0.024,0.006-0.039,0.009c0.075-0.001,0.149-0.009,0.225-0.009H46.576z"/>
<path fill="#FFFFFF" d="M46.844,9.325c-0.026,0.005-0.056,0.008-0.085,0.016c0.092,0.002,0.181-0.009,0.271-0.004L46.844,9.325z"/>
<path fill="none" d="M42.44,28.614c-0.215,1.03-0.354,2.121-0.506,3.212l0.48-0.212C42.415,30.614,42.415,29.614,42.44,28.614z"/>
<rect x="45.429" y="9.636" fill="#00539B" width="1.233" height="1.471"/>
<path fill="#00539B" d="M52.634,36.63c0.01,0.007,0.024,0.013,0.034,0.021C52.664,36.639,52.654,36.631,52.634,36.63z"/>
<rect x="51.876" y="9.572" fill="#00539B" width="1.132" height="1.535"/>
<path fill="#00539B" d="M42.424,36.414c0-0.638-0.005-1.277-0.008-1.915C42.408,35.137,42.424,35.78,42.424,36.414z"/>
<path fill="#00539B" d="M56.156,31.831c-0.542,0-3.016,0.28-3.016,0.28l-2.692,0.092l5.708-1.396l1.434,1.413
	c-0.071-1.35-0.462-2.787-0.3-3.938c0.372-2.675,0.527-5.143,0.174-7.901c-0.441-3.409,0.323-6.53-0.234-9.819
	c-0.262-1.544,0.122-3.188,0.023-4.748c-0.107-1.648-1.12-3.197-1.338-4.799c-0.024,0.274-0.191,0.479-0.232,0.728
	c0-0.07,0.006-0.145,0.014-0.215c-0.033-0.016-0.277,0.29-0.665-0.525c-0.016,0.004-0.453,0.231-0.434,0.236
	c-0.739-0.377-1.493-0.364-2.175,0.064c-1.411-1.926-2.164-1.264-4.858-0.845c0.182-0.026-1.769,0.382-1.627,0.333
	c-0.648,0.231-0.773-0.027-0.892,0.652c-0.263-0.033-0.609,0.054-0.792,0.165c-0.137-0.052-0.368-0.191-0.502-0.258
	c-0.129,0.372-0.523,0.62-0.48,1.109c-0.146-0.318-0.416-0.605-0.443-1.146c-0.31,0.398-0.655,0.773-0.626,1.423
	c0.055-0.438-0.167-0.886-0.223-1.125c-0.166,0.299-0.72,0.656-0.944,0.969c-0.135-0.159-0.281-0.346-0.382-0.467
	c-0.235,0.643-0.539,1.739-0.441,2.368c0,9.351,0.274,18.726-0.016,28.076c1.412-2.05,0.142-4.524,0.9-6.61
	c0.005,3.238-0.252,6.586,0.05,9.794c0.371-1.156,0.575-2.41,0.753-3.668l-0.609,0.039l0.644-0.285
	c0.152-1.091,0.291-2.183,0.506-3.212c-0.025,1-0.025,2-0.025,3l2.031-0.897l0.628,1.12l5.051-1.493l1.507,1.485
	c0,0-0.969-0.463-1.507-0.463c-0.54,0-4.605,0.798-4.605,0.798l-0.335-0.131l0.095,0.17c0,0-0.181-0.155-0.39-0.284l-0.039-0.016
	l0.01-0.003c-0.145-0.086-0.297-0.159-0.415-0.159c-0.298,0-1.667,0.276-1.667,0.276l-0.367,0.022c0.001,0.82,0,1.641,0.005,2.46
	c0.005-0.392,0.017-0.783,0.055-1.167c0.251,0.805,0.164,1.651,0.218,2.467c0.231-0.51,0.371-1.103,0.396-1.664
	c0.033,0.516,0.326,0.972,0.5,1.423c0.093-0.244,0.321-0.533,0.43-0.798c0.555,0.521,0.754,1.36,1.281,1.895
	c0.073-0.293,0.444-0.764,0.497-1.152c0.121,0.322,0.48,0.693,0.597,0.982c0.142-0.262,0.412-0.433,0.511-0.811
	c0.128,1.494,1.472,0.751,2.341,0.096c-0.071,0.303,0.221,0.741,0.205,0.966c0.041-0.091,0.071-0.176,0.092-0.269
	c0.259,0.151,0.992,0.396,1.288,0.511c0.099-0.162,0.566-0.462,0.671-0.653c0.233,0.227,0.696,0.437,0.894,0.653
	c-0.01,0.009,0.298-0.253,0.276-0.328c-0.01-0.007-0.024-0.014-0.034-0.021c0.021,0.001,0.03,0.009,0.034,0.021
	c0.263,0.196,0.913,0.367,1.211,0.575c0.146-0.1,0.376-0.486,0.427-0.592c0.046,0.104,0.14,0.146,0.28,0.14
	c0.358-0.539,0.469-1.152,0.604-1.775c-0.087,0.017,0.518,0.267,0.512,0.263c0.027-0.069,0.196-0.589,0.255-0.64
	c0.137,0.176,0.472,0.324,0.619,0.591c0.897-0.782,1.068-1.834,1.015-2.95C57.362,32.158,56.611,31.831,56.156,31.831z
	 M50.489,29.268l-3.705,1.076l-0.43-0.65l-1.912,0.6l2.425-17.222h-1.438v0.005h-0.572V8.852h0.572v0.292h1.233V6.521h-0.691V5.589
	h0.792l2.346-1.264l2.643,1.264h0.62v0.933h-0.496v2.56h1.132v-0.24h0.573v4.23h-0.425h-0.148h-1.617l2.78,17.004l-2.25,0.862
	L50.489,29.268z"/>
<path fill="#00539B" d="M47.411,11.107h1.441v-1.003c0.139,0.053,0.287,0.083,0.445,0.083c0.136,0,0.265-0.027,0.387-0.068v0.988
	h1.484V6.521h-3.758V11.107z M49.283,7.745c0.505,0,0.917,0.399,0.917,0.893c0,0.49-0.412,0.89-0.917,0.89
	c-0.514,0-0.926-0.399-0.926-0.89C48.357,8.144,48.77,7.745,49.283,7.745z"/>
<path fill="#00539B" d="M47.231,14.282l-1.352,10.775l-0.39,3.134l-0.167,1.341c0,0,0.741-2.895,0.741-3.226s0.37-2.897,0.37-2.897
	l0.094-1.158l0.094-1.324c0,0,0.277-1.406,0.372-1.738c0.092-0.332,0.185-0.745,0.185-0.745s0.093-0.912,0.093-1.491
	c0-0.58,0-0.331,0.093-1.325c0.094-0.992-0.093-1.655-0.093-1.655L47.231,14.282z"/>
<path fill="#FFFFFF" d="M54.171,30.075l-2.78-17.004h1.617h0.148h0.425v-4.23h-0.573v0.24h-1.132v-2.56h0.496V5.589h-0.62
	l-2.643-1.264l-2.346,1.264h-0.792v0.933h0.691v2.622h-1.233V8.852h-0.572v4.225h0.572v-0.005h1.438l-2.425,17.222l1.912-0.6
	l0.43,0.65l3.705-1.076l1.432,1.669L54.171,30.075z M51.876,9.572h1.132v1.535h-1.132V9.572z M46.662,11.107h-1.233V9.636h1.233
	V11.107z M47.363,15.628c-0.093,0.994-0.093,0.745-0.093,1.325c0,0.579-0.093,1.491-0.093,1.491s-0.093,0.413-0.185,0.745
	c-0.095,0.332-0.372,1.738-0.372,1.738l-0.094,1.324l-0.094,1.158c0,0-0.37,2.566-0.37,2.897s-0.741,3.226-0.741,3.226l0.167-1.341
	l0.39-3.134l1.352-10.775l0.039-0.309C47.27,13.973,47.457,14.636,47.363,15.628z M51.169,11.107h-1.484v-0.988
	c-0.122,0.041-0.251,0.068-0.387,0.068c-0.158,0-0.307-0.031-0.445-0.083v1.003h-1.441V6.521h3.758V11.107z"/>
<path fill="#FFFFFF" d="M41.291,32.111l0.609-0.039c0.011-0.082,0.023-0.164,0.034-0.246L41.291,32.111z"/>
<path fill="#FFFFFF" d="M44.445,31.741c0.117,0,0.27,0.073,0.415,0.159l-0.01,0.003l0.039,0.016c0.209,0.129,0.39,0.284,0.39,0.284
	l-0.095-0.17l0.335,0.131c0,0,4.065-0.798,4.605-0.798c0.538,0,1.507,0.463,1.507,0.463l-1.507-1.485l-5.051,1.493l-0.628-1.12
	l-2.031,0.897c0,0.142-0.004,0.283-0.003,0.425l0.367-0.022C42.778,32.017,44.147,31.741,44.445,31.741z"/>
<path fill="#FFFFFF" d="M57.664,32.297l-0.074-0.076c0,0.015,0.001,0.029,0.001,0.042C57.635,32.282,57.664,32.297,57.664,32.297z"
	/>
<path fill="#FFFFFF" d="M50.448,32.203l2.692-0.092c0,0,2.474-0.28,3.016-0.28c0.455,0,1.206,0.327,1.435,0.432
	c0-0.013-0.001-0.027-0.001-0.042l-1.434-1.413L50.448,32.203z"/>
<path fill="#FFFFFF" d="M49.283,9.527c0.505,0,0.917-0.399,0.917-0.89c0-0.494-0.412-0.893-0.917-0.893
	c-0.514,0-0.926,0.399-0.926,0.893C48.357,9.127,48.77,9.527,49.283,9.527z"/>
</svg>
